<svg xmlns="http://www.w3.org/2000/svg" viewBox="0 0 24 24" fill="none">
  <!-- X face (tilt right) -->
  <g transform="rotate(20 7.2 9) translate(0.2 -0.3)">
    <path d="M3.2 9 L7.2 5 L11.2 9 L7.2 13 Z" fill="#FFFFFF"/>
    <path d="M5.3 7.1 L9.1 10.9" stroke="#111111" stroke-width="2" stroke-linecap="round"/>
    <path d="M9.1 7.1 L5.3 10.9" stroke="#111111" stroke-width="2" stroke-linecap="round"/>
  </g>

  <!-- N face (tilt left) -->
  <g transform="rotate(-20 16.8 9) translate(-0.2 -0.3)">
    <path d="M12.8 9 L16.8 5 L20.8 9 L16.8 13 Z" fill="#FFFFFF"/>
    <path d="M15.4 6.8 V11.2" stroke="#111111" stroke-width="1.4" stroke-linecap="round"/>
    <path d="M18.2 6.8 V11.2" stroke="#111111" stroke-width="1.4" stroke-linecap="round"/>
    <path d="M15.4 6.8 L18.2 11.2" stroke="#111111" stroke-width="1.4" stroke-linecap="round"/>
  </g>

  <!-- E face (tilt forward) -->
  <g transform="rotate(-6 12 16.8) scale(1.05 0.94)">
    <path d="M8 16.8 L12 12.8 L16 16.8 L12 20.8 Z" fill="#FFFFFF"/>
    <g transform="rotate(90 12 16.8)">
      <path d="M10.4 14.2 V19.4" stroke="#111111" stroke-width="2" stroke-linecap="round"/>
      <path d="M10.4 14.2 H13.8" stroke="#111111" stroke-width="2" stroke-linecap="round"/>
      <path d="M10.4 16.8 H12.8" stroke="#111111" stroke-width="2" stroke-linecap="round"/>
      <path d="M10.4 19.4 H13.8" stroke="#111111" stroke-width="2" stroke-linecap="round"/>
    </g>
  </g>
</svg>
