<svg xmlns="http://www.w3.org/2000/svg" viewBox="0 0 192 192" fill="none">
  <defs>
    <style>
      .bubble { fill: none; stroke-linecap: round; stroke-linejoin: round; }
      .label { font-family: Arial, Helvetica, sans-serif; font-weight: 700; }
    </style>
  </defs>

  <!-- Light bubble (back) with 3D offset -->
  <g>
    <g transform="translate(1 1)" opacity="0.55">
      <rect class="bubble" x="56" y="28" width="110" height="78" rx="16" stroke="#B8B8B8" stroke-width="10" />
      <path class="bubble" d="M144 28 L170 14 L160 28" stroke="#B8B8B8" stroke-width="10" />
    </g>
    <rect class="bubble" x="56" y="28" width="110" height="78" rx="16" stroke="#F4F4F4" stroke-width="10" />
    <path class="bubble" d="M144 28 L170 14 L160 28" stroke="#F4F4F4" stroke-width="10" />
    <g transform="translate(-1 -1)" opacity="0.9">
      <rect class="bubble" x="56" y="28" width="110" height="78" rx="16" stroke="#FFFFFF" stroke-width="6" />
      <path class="bubble" d="M144 28 L170 14 L160 28" stroke="#FFFFFF" stroke-width="6" />
    </g>
    <text class="label" x="112" y="68" text-anchor="middle" dominant-baseline="middle" font-size="40" fill="#B8B8B8" transform="translate(1 1)">文</text>
    <text class="label" x="111" y="67" text-anchor="middle" dominant-baseline="middle" font-size="40" fill="#F4F4F4">文</text>
  </g>

  <!-- Light bubble (front) with 3D offset -->
  <g>
    <g transform="translate(1 1)" opacity="0.55">
      <rect class="bubble" x="18" y="88" width="110" height="78" rx="16" stroke="#B8B8B8" stroke-width="10" />
      <path class="bubble" d="M54 166 L26 186 L46 166" stroke="#B8B8B8" stroke-width="10" />
    </g>
    <rect class="bubble" x="18" y="88" width="110" height="78" rx="16" stroke="#F4F4F4" stroke-width="10" />
    <path class="bubble" d="M54 166 L26 186 L46 166" stroke="#F4F4F4" stroke-width="10" />
    <g transform="translate(-1 -1)" opacity="0.9">
      <rect class="bubble" x="18" y="88" width="110" height="78" rx="16" stroke="#FFFFFF" stroke-width="6" />
      <path class="bubble" d="M54 166 L26 186 L46 166" stroke="#FFFFFF" stroke-width="6" />
    </g>
    <text class="label" x="74" y="128" text-anchor="middle" dominant-baseline="middle" font-size="40" fill="#B8B8B8" transform="translate(1 1)">A</text>
    <text class="label" x="73" y="127" text-anchor="middle" dominant-baseline="middle" font-size="40" fill="#F4F4F4">A</text>
  </g>
</svg>
