<svg xmlns="http://www.w3.org/2000/svg" viewBox="0 0 192 192" fill="none">
  <defs>
    <style>
      .bubble { fill: none; stroke-linecap: round; stroke-linejoin: round; }
      .label { font-family: Arial, Helvetica, sans-serif; font-weight: 700; }
    </style>
  </defs>

  <!-- Teal bubble (back) with 3D offset -->
  <g>
    <g transform="translate(1 1)" opacity="0.55">
      <rect class="bubble" x="56" y="28" width="110" height="78" rx="16" stroke="#1E7F7A" stroke-width="10" />
      <path class="bubble" d="M144 28 L170 14 L160 28" stroke="#1E7F7A" stroke-width="10" />
    </g>
    <rect class="bubble" x="56" y="28" width="110" height="78" rx="16" stroke="#38B7B1" stroke-width="10" />
    <path class="bubble" d="M144 28 L170 14 L160 28" stroke="#38B7B1" stroke-width="10" />
    <g transform="translate(-1 -1)" opacity="0.9">
      <rect class="bubble" x="56" y="28" width="110" height="78" rx="16" stroke="#73DAD5" stroke-width="6" />
      <path class="bubble" d="M144 28 L170 14 L160 28" stroke="#73DAD5" stroke-width="6" />
    </g>
    <text class="label" x="112" y="68" text-anchor="middle" dominant-baseline="middle" font-size="40" fill="#1E7F7A" transform="translate(1 1)">文</text>
    <text class="label" x="111" y="67" text-anchor="middle" dominant-baseline="middle" font-size="40" fill="#38B7B1">文</text>
  </g>

  <!-- Orange bubble (front) with 3D offset -->
  <g>
    <g transform="translate(1 1)" opacity="0.55">
      <rect class="bubble" x="18" y="88" width="110" height="78" rx="16" stroke="#B35E0B" stroke-width="10" />
      <path class="bubble" d="M54 166 L26 186 L46 166" stroke="#B35E0B" stroke-width="10" />
    </g>
    <rect class="bubble" x="18" y="88" width="110" height="78" rx="16" stroke="#E07B1C" stroke-width="10" />
    <path class="bubble" d="M54 166 L26 186 L46 166" stroke="#E07B1C" stroke-width="10" />
    <g transform="translate(-1 -1)" opacity="0.9">
      <rect class="bubble" x="18" y="88" width="110" height="78" rx="16" stroke="#F0A14F" stroke-width="6" />
      <path class="bubble" d="M54 166 L26 186 L46 166" stroke="#F0A14F" stroke-width="6" />
    </g>
    <text class="label" x="74" y="128" text-anchor="middle" dominant-baseline="middle" font-size="40" fill="#B35E0B" transform="translate(1 1)">A</text>
    <text class="label" x="73" y="127" text-anchor="middle" dominant-baseline="middle" font-size="40" fill="#E07B1C">A</text>
  </g>
</svg>
